<svg width="27" height="30" viewBox="0 0 27 30" fill="none" xmlns="http://www.w3.org/2000/svg">
<g clip-path="url(#clip0_7_1424)">
<path d="M26.5 5.625C26.5 3.55664 24.8184 1.875 22.75 1.875H4C1.93164 1.875 0.25 3.55664 0.25 5.625V24.375C0.25 26.4434 1.93164 28.125 4 28.125H22.75C24.8184 28.125 26.5 26.4434 26.5 24.375V5.625ZM15.8242 23.8887C15.8242 23.7832 15.8242 23.5371 15.8301 23.209C15.8359 22.541 15.8359 21.5215 15.8359 20.6484C15.8359 19.7344 15.5312 19.1543 15.1738 18.8496C17.3418 18.6094 19.627 18.3105 19.627 14.5664C19.627 13.5 19.2461 12.9668 18.625 12.2812C18.7246 12.0293 19.0586 10.9922 18.5254 9.64453C17.7109 9.39258 15.8477 10.6934 15.8477 10.6934C15.0742 10.4766 14.2363 10.3652 13.4102 10.3652C12.584 10.3652 11.7461 10.4766 10.9727 10.6934C10.9727 10.6934 9.10938 9.39258 8.29492 9.64453C7.76172 10.9863 8.08984 12.0234 8.19531 12.2812C7.57422 12.9668 7.28125 13.5 7.28125 14.5664C7.28125 18.293 9.4668 18.6094 11.6348 18.8496C11.3535 19.1016 11.1016 19.5352 11.0137 20.1562C10.457 20.4082 9.0332 20.8418 8.18359 19.3418C7.65039 18.416 6.68945 18.3398 6.68945 18.3398C5.74023 18.3281 6.625 18.9375 6.625 18.9375C7.25781 19.2305 7.70312 20.3555 7.70312 20.3555C8.27148 22.0957 10.9902 21.5098 10.9902 21.5098C10.9902 22.0371 10.9961 22.7812 10.9961 23.3027C10.9961 23.584 11.002 23.8066 11.002 23.8887C11.002 24.1406 10.8262 24.4453 10.3281 24.3574C6.46094 23.0625 3.75391 19.3828 3.75391 15.082C3.75391 9.70312 7.86719 5.61914 13.2461 5.61914C18.625 5.61914 22.9844 9.70312 22.9844 15.082C22.9902 19.3828 20.3652 23.0684 16.498 24.3574C16.0059 24.4453 15.8242 24.1406 15.8242 23.8887ZM10.5215 20.6777C10.5098 20.5898 10.5859 20.5137 10.6973 20.4902C10.8086 20.4785 10.9141 20.5254 10.9258 20.6016C10.9434 20.6777 10.8672 20.7539 10.75 20.7773C10.6387 20.8008 10.5332 20.7539 10.5215 20.6777ZM9.98828 20.8652C9.85938 20.877 9.77148 20.8125 9.77148 20.7246C9.77148 20.6484 9.85938 20.584 9.97656 20.584C10.0879 20.5723 10.1934 20.6367 10.1934 20.7246C10.1934 20.8008 10.1055 20.8652 9.98828 20.8652ZM9.15039 20.7363C9.03906 20.7129 8.96289 20.625 8.98633 20.5488C9.00977 20.4727 9.12695 20.4375 9.22656 20.4609C9.34375 20.4961 9.41992 20.584 9.39062 20.6602C9.36719 20.7363 9.25 20.7715 9.15039 20.7363ZM8.41797 20.3086C8.33008 20.2324 8.30664 20.1211 8.36523 20.0684C8.41797 20.0039 8.5293 20.0156 8.61719 20.1035C8.69336 20.1797 8.72266 20.2969 8.66992 20.3438C8.61719 20.4082 8.50586 20.3965 8.41797 20.3086ZM7.91992 19.7227C7.85547 19.6348 7.85547 19.5352 7.91992 19.4941C7.98437 19.4414 8.08398 19.4824 8.13672 19.5703C8.20117 19.6582 8.20117 19.7637 8.13672 19.8105C8.08398 19.8457 7.98437 19.8105 7.91992 19.7227ZM7.55078 19.207C7.48633 19.1309 7.47461 19.043 7.52734 19.002C7.58008 18.9492 7.66797 18.9785 7.73242 19.0371C7.79688 19.1133 7.80859 19.2012 7.75586 19.2422C7.70313 19.2949 7.61523 19.2656 7.55078 19.207ZM7.19922 18.832C7.12305 18.7969 7.08789 18.7324 7.11133 18.6797C7.13477 18.6445 7.19922 18.627 7.27539 18.6562C7.35156 18.6973 7.38672 18.7617 7.36328 18.8086C7.33984 18.8613 7.26367 18.873 7.19922 18.832Z" fill="#E07A5F"/>
</g>
<defs>
<clipPath id="clip0_7_1424">
<rect width="26.25" height="30" fill="white" transform="translate(0.25)"/>
</clipPath>
</defs>
</svg>