<svg width="99" height="18" viewBox="0 0 99 18" fill="none" xmlns="http://www.w3.org/2000/svg">
<path d="M0.518 18V0.864999H4.083V9.444L3.094 9.099L9.948 0.864999H14.41L7.625 9.053L7.832 6.523L14.548 18H10.385L6.199 10.755L4.083 13.308V18H0.518ZM15.043 18L20.839 0.864999H25.577L31.373 18H27.486L26.336 14.504H20.057L18.907 18H15.043ZM21.046 11.399H25.347L22.725 3.303H23.691L21.046 11.399ZM35.0902 18V3.97H30.7432V0.864999H42.9332V3.97H38.6552V18H35.0902ZM44.6987 18V0.864999H56.2217V3.97H48.2637V7.857H55.7617V10.962H48.2637V14.895H56.2217V18H44.6987ZM58.2426 18V0.864999H61.8076V14.895H69.0526V18H58.2426ZM73.1933 18V10.525L67.4893 0.864999H71.5603L75.7003 8.133H74.2513L78.3683 0.864999H82.4393L76.7583 10.502V18H73.1933ZM84.2075 18V0.864999H86.9445L96.1445 12.986L94.6725 13.331V0.864999H98.2375V18H95.4775L86.4385 5.787L87.7725 5.442V18H84.2075Z" fill="#3D405B"/>
</svg>
